<svg width="53" height="27" viewBox="0 0 53 27" fill="none" xmlns="http://www.w3.org/2000/svg">
<path d="M29.88 0.367998C32.28 0.367998 34.2 1.12 35.64 2.624C37.112 4.096 37.848 6.048 37.848 8.48V26H31.512V12.08C31.512 9.904 31.224 8.352 30.648 7.424C30.072 6.464 29.112 5.984 27.768 5.984C26.136 5.984 24.456 6.896 22.728 8.72V26H16.392V12.08C16.392 9.904 16.104 8.352 15.528 7.424C14.952 6.464 13.992 5.984 12.648 5.984C11.016 5.984 9.336 6.896 7.608 8.72V26H1.272V6.512L0.216 0.943999H6.024L6.936 4.16C8.216 2.816 9.48 1.856 10.728 1.28C11.976 0.671998 13.32 0.367998 14.76 0.367998C16.36 0.367998 17.768 0.735998 18.984 1.472C20.232 2.176 21.176 3.152 21.816 4.4C23.16 2.96 24.456 1.936 25.704 1.328C26.984 0.687999 28.376 0.367998 29.88 0.367998ZM48.3806 26.576C47.1646 26.576 46.1406 26.176 45.3086 25.376C44.4766 24.576 44.0606 23.52 44.0606 22.208C44.0606 20.896 44.4766 19.84 45.3086 19.04C46.1406 18.24 47.1646 17.84 48.3806 17.84C49.5966 17.84 50.6206 18.24 51.4526 19.04C52.2846 19.84 52.7006 20.896 52.7006 22.208C52.7006 23.52 52.2846 24.576 51.4526 25.376C50.6206 26.176 49.5966 26.576 48.3806 26.576Z" fill="#F2F2F2"/>
</svg>
