<svg width="36" height="19" viewBox="0 0 36 19" fill="none" xmlns="http://www.w3.org/2000/svg">
<path d="M20.2169 0.911999C21.8169 0.911999 23.0969 1.41333 24.0569 2.416C25.0382 3.39733 25.5289 4.69867 25.5289 6.32V18H21.3049V8.72C21.3049 7.26933 21.1129 6.23467 20.7289 5.616C20.3449 4.976 19.7049 4.656 18.8089 4.656C17.7209 4.656 16.6009 5.264 15.4489 6.48V18H11.2249V8.72C11.2249 7.26933 11.0329 6.23467 10.6489 5.616C10.2649 4.976 9.62488 4.656 8.72888 4.656C7.64088 4.656 6.52088 5.264 5.36888 6.48V18H1.14488V5.008L0.440875 1.296H4.31288L4.92088 3.44C5.77421 2.544 6.61688 1.904 7.44888 1.52C8.28088 1.11467 9.17688 0.911999 10.1369 0.911999C11.2035 0.911999 12.1422 1.15733 12.9529 1.648C13.7849 2.11733 14.4142 2.768 14.8409 3.6C15.7369 2.64 16.6009 1.95733 17.4329 1.552C18.2862 1.12533 19.2142 0.911999 20.2169 0.911999ZM32.5506 18.384C31.74 18.384 31.0573 18.1173 30.5026 17.584C29.948 17.0507 29.6706 16.3467 29.6706 15.472C29.6706 14.5973 29.948 13.8933 30.5026 13.36C31.0573 12.8267 31.74 12.56 32.5506 12.56C33.3613 12.56 34.044 12.8267 34.5986 13.36C35.1533 13.8933 35.4306 14.5973 35.4306 15.472C35.4306 16.3467 35.1533 17.0507 34.5986 17.584C34.044 18.1173 33.3613 18.384 32.5506 18.384Z" fill="#111C26"/>
</svg>
